<?xml version="1.0" standalone="no"?>
<!DOCTYPE svg PUBLIC "-//W3C//DTD SVG 20010904//EN"
 "http://www.w3.org/TR/2001/REC-SVG-20010904/DTD/svg10.dtd">
<svg version="1.0" xmlns="http://www.w3.org/2000/svg"
 width="406.000000pt" height="284.000000pt" viewBox="0 0 406.000000 284.000000"
 preserveAspectRatio="xMidYMid meet">

<g transform="translate(0.000000,284.000000) scale(0.100000,-0.100000)"
fill="#000000" stroke="none">
<path d="M3115 2246 c-135 -43 -218 -151 -245 -321 -31 -193 17 -364 136 -482
l62 -61 -48 -86 c-185 -331 -345 -406 -412 -193 -22 69 -23 88 -23 392 0 280
3 339 23 471 24 164 22 201 -14 235 -29 27 -114 37 -168 19 -64 -21 -84 -60
-122 -247 -71 -350 -132 -550 -230 -748 -89 -182 -163 -262 -215 -235 -26 14
-56 75 -76 157 -25 97 -24 512 1 703 28 211 31 291 12 327 -20 39 -69 57 -142
51 -69 -6 -109 -41 -129 -113 -13 -47 -35 -202 -50 -357 -11 -109 -8 -446 5
-538 35 -269 115 -437 235 -495 49 -25 64 -27 130 -23 169 11 316 147 438 406
l41 87 22 -110 c38 -193 91 -295 179 -350 61 -38 166 -47 248 -20 160 52 342
235 480 481 l52 94 132 -6 c146 -8 180 0 209 44 25 38 34 89 22 124 -15 43
-59 58 -167 58 -49 0 -92 3 -94 8 -3 4 9 57 25 117 28 100 31 125 32 270 1
156 0 161 -26 211 -64 121 -190 172 -323 130z m85 -262 c25 -66 -11 -354 -44
-354 -16 0 -52 64 -61 110 -11 50 -8 172 5 206 25 66 82 88 100 38z"/>
<path d="M494 1051 c-73 -33 -110 -103 -102 -198 9 -111 103 -174 224 -152 93
18 147 87 148 194 1 77 -23 122 -84 153 -55 27 -129 29 -186 3z"/>
</g>
</svg>
